<svg xmlns="http://www.w3.org/2000/svg" viewBox="0 0 378.72 53.86"><defs><style>.cls-1{fill:#231f20;}</style></defs><title>spotlightlogo</title><g id="Layer_4" data-name="Layer 4"><path class="cls-1" d="M41.1,14.7a10,10,0,0,0-4.9-4.1A18.89,18.89,0,0,0,28.35,9a20.83,20.83,0,0,0-5.22.72A15.77,15.77,0,0,0,18.06,12a14,14,0,0,0-3.86,4,10.64,10.64,0,0,0-1.54,5.86,9.59,9.59,0,0,0,.82,4.22A8.58,8.58,0,0,0,15.79,29a14.76,14.76,0,0,0,3.53,2.05c1.36.57,2.89,1.15,4.57,1.73q3,1.08,5.47,2.23a18.28,18.28,0,0,1,4.32,2.7,11.1,11.1,0,0,1,2.81,3.63,11.39,11.39,0,0,1,1,5,14.87,14.87,0,0,1-1.3,6.27,13.25,13.25,0,0,1-3.67,4.75,17.55,17.55,0,0,1-5.69,3,23.62,23.62,0,0,1-7.34,1.08,20.91,20.91,0,0,1-4.54-.5,19.07,19.07,0,0,1-4.14-1.44,17.43,17.43,0,0,1-3.42-2.2A12.29,12.29,0,0,1,5,54.59l1.23-.93a10,10,0,0,0,2,2.37,13.89,13.89,0,0,0,3.06,2,20.22,20.22,0,0,0,4,1.4,19.78,19.78,0,0,0,4.72.54,21.51,21.51,0,0,0,6.37-.9,14.83,14.83,0,0,0,5.08-2.66,12.17,12.17,0,0,0,3.34-4.29,13.24,13.24,0,0,0,1.19-5.76,9.86,9.86,0,0,0-1-4.68A10.58,10.58,0,0,0,32,38.36a18.35,18.35,0,0,0-4.21-2.42q-2.41-1-5.22-1.94a44.55,44.55,0,0,1-4.46-1.76,16.37,16.37,0,0,1-3.67-2.31A9.37,9.37,0,0,1,12,26.66a11.1,11.1,0,0,1-.9-4.68,12.35,12.35,0,0,1,1.59-6.38,14.61,14.61,0,0,1,4.06-4.5,17.45,17.45,0,0,1,5.62-2.66,22.93,22.93,0,0,1,6.16-.86,18.8,18.8,0,0,1,8.67,1.8,13.16,13.16,0,0,1,5.15,4.32Z" transform="translate(-4.95 -7.58)"/><path class="cls-1" d="M54.34,34.94,50,60H48.37l9-51H70.26a21.75,21.75,0,0,1,5,.57,13.57,13.57,0,0,1,4.4,1.87,10,10,0,0,1,3.16,3.46A10.79,10.79,0,0,1,84,20.32a15.54,15.54,0,0,1-1,5.54,12.45,12.45,0,0,1-3.13,4.68,15.18,15.18,0,0,1-5.44,3.21,23.32,23.32,0,0,1-7.85,1.19Zm28.08-14.7a9.45,9.45,0,0,0-1-4.6,8.7,8.7,0,0,0-2.74-3.08,11.87,11.87,0,0,0-3.81-1.7,16.62,16.62,0,0,0-4.21-.55h-12l-4,23.33H66.94q7.56,0,11.52-3.69A12.67,12.67,0,0,0,82.42,20.24Z" transform="translate(-4.95 -7.58)"/><path class="cls-1" d="M90.42,38.75a34.18,34.18,0,0,1,2-11.77,30.66,30.66,0,0,1,5.87-10,28.32,28.32,0,0,1,9.21-6.88,27.82,27.82,0,0,1,12-2.55A27.08,27.08,0,0,1,129.66,9.3a19.44,19.44,0,0,1,7.16,4.83,20,20,0,0,1,4.25,7.27,28.24,28.24,0,0,1,1.4,9,33.93,33.93,0,0,1-2.05,11.74,30.87,30.87,0,0,1-5.83,9.9,28.3,28.3,0,0,1-9.18,6.84,27.82,27.82,0,0,1-12,2.55A26.87,26.87,0,0,1,103.3,59.7,20,20,0,0,1,96.1,55a19.15,19.15,0,0,1-4.28-7.16A27.87,27.87,0,0,1,90.42,38.75Zm50.47-8.35a27.07,27.07,0,0,0-1.26-8.32,18.27,18.27,0,0,0-3.89-6.8,18.58,18.58,0,0,0-6.66-4.57A24.43,24.43,0,0,0,119.58,9a25.49,25.49,0,0,0-11.31,2.48,27.11,27.11,0,0,0-8.71,6.62A30.35,30.35,0,0,0,94,27.63a31.83,31.83,0,0,0-2,11.12,25.77,25.77,0,0,0,1.3,8.32,18.65,18.65,0,0,0,3.92,6.73,18.27,18.27,0,0,0,6.66,4.54,25,25,0,0,0,9.5,1.65,25.48,25.48,0,0,0,11.27-2.45A26.87,26.87,0,0,0,133.33,51a29.82,29.82,0,0,0,5.58-9.47A31.83,31.83,0,0,0,140.89,30.4Z" transform="translate(-4.95 -7.58)"/><path class="cls-1" d="M169.26,10.46,160.54,60H159l8.71-49.53H150L150.32,9h36.29l-.29,1.44Z" transform="translate(-4.95 -7.58)"/><path class="cls-1" d="M186,60l9-51h1.58l-8.71,49.53h25.35L212.89,60Z" transform="translate(-4.95 -7.58)"/><path class="cls-1" d="M221.81,60l9-51h1.59l-9,51Z" transform="translate(-4.95 -7.58)"/><path class="cls-1" d="M262.85,61.43a27.53,27.53,0,0,1-10-1.65,18.76,18.76,0,0,1-7-4.61,18.57,18.57,0,0,1-4.11-7,28.38,28.38,0,0,1-1.33-8.89,32.91,32.91,0,0,1,8.46-22,30.73,30.73,0,0,1,9.47-7,27.26,27.26,0,0,1,11.95-2.62A28.72,28.72,0,0,1,275,8a22.31,22.31,0,0,1,4.42,1.23,18.7,18.7,0,0,1,3.86,2.05,14.2,14.2,0,0,1,3.06,2.88l-1.16,1.15a13.23,13.23,0,0,0-2.91-2.77,18.23,18.23,0,0,0-3.67-2,19.81,19.81,0,0,0-4.14-1.15A25.85,25.85,0,0,0,270.2,9,25.33,25.33,0,0,0,259,11.54a29.18,29.18,0,0,0-9,6.69,31.06,31.06,0,0,0-5.9,9.58A30.15,30.15,0,0,0,242,39a26.64,26.64,0,0,0,1.23,8.21,18.34,18.34,0,0,0,3.74,6.66,17.66,17.66,0,0,0,6.48,4.5A24.47,24.47,0,0,0,262.85,60a36,36,0,0,0,9-1.08,27.2,27.2,0,0,0,7-2.73l3.53-20H269.12l.29-1.3h14.76l-4,22.19a27.89,27.89,0,0,1-7.56,3.13A37.48,37.48,0,0,1,262.85,61.43Z" transform="translate(-4.95 -7.58)"/><path class="cls-1" d="M329.09,60l4.54-25.63H300.22L295.69,60H294.1l9-51h1.59l-4.25,23.9h33.41L338.09,9h1.59l-9,51Z" transform="translate(-4.95 -7.58)"/><path class="cls-1" d="M366.32,10.46,357.6,60H356l8.71-49.53H347.09L347.38,9h36.29l-.29,1.44Z" transform="translate(-4.95 -7.58)"/></g></svg>